<mxfile modified="2022-02-18T15:16:55.020Z" host="app.diagrams.net" agent="5.0 (Windows NT 10.0; Win64; x64) AppleWebKit/537.36 (KHTML, like Gecko) Chrome/98.0.4758.102 Safari/537.36" etag="Yhplulx2Dj63dz1YGiwn" version="16.6.1" type="github">
  <diagram id="Ht1M8jgEwFfnCIfOTk4-" name="Page-1">
    <mxGraphModel dx="1422" dy="754" grid="1" gridSize="10" guides="1" tooltips="1" connect="1" arrows="1" fold="1" page="1" pageScale="1" pageWidth="1169" pageHeight="827" math="0" shadow="0">
      <root>
        <mxCell id="0" />
        <mxCell id="1" parent="0" />
        <mxCell id="Htbz3_5xFDLYGNEnt884-80" value="" style="rounded=0;whiteSpace=wrap;html=1;shadow=0;labelBackgroundColor=none;sketch=0;fontSize=15;fontColor=#DBD4EE;strokeColor=#000000;fillColor=none;gradientColor=none;" vertex="1" parent="1">
          <mxGeometry x="783.25" y="485" width="760" height="549" as="geometry" />
        </mxCell>
        <mxCell id="Htbz3_5xFDLYGNEnt884-75" value="" style="rounded=0;whiteSpace=wrap;html=1;shadow=0;labelBackgroundColor=none;sketch=0;fontSize=15;fontColor=#DBD4EE;strokeColor=#FFB570;fillColor=none;gradientColor=none;" vertex="1" parent="1">
          <mxGeometry x="882.25" y="747.5" width="581" height="169" as="geometry" />
        </mxCell>
        <mxCell id="Htbz3_5xFDLYGNEnt884-76" value="" style="rounded=0;whiteSpace=wrap;html=1;shadow=0;labelBackgroundColor=none;sketch=0;fontSize=15;fontColor=#DBD4EE;strokeColor=#FFB570;fillColor=none;gradientColor=none;dashed=1;" vertex="1" parent="1">
          <mxGeometry x="793.25" y="778" width="537" height="76" as="geometry" />
        </mxCell>
        <mxCell id="Htbz3_5xFDLYGNEnt884-63" value="" style="rounded=0;whiteSpace=wrap;html=1;fontSize=15;fontColor=#DBD4EE;fillColor=none;strokeColor=#7F00FF;" vertex="1" parent="1">
          <mxGeometry x="889.25" y="645" width="560" height="179" as="geometry" />
        </mxCell>
        <mxCell id="Htbz3_5xFDLYGNEnt884-4" value="" style="rounded=0;whiteSpace=wrap;html=1;fillColor=none;" vertex="1" parent="1">
          <mxGeometry x="933.25" y="767" width="80" height="100" as="geometry" />
        </mxCell>
        <mxCell id="Htbz3_5xFDLYGNEnt884-12" value="" style="rounded=0;whiteSpace=wrap;html=1;fontSize=15;fillColor=none;" vertex="1" parent="1">
          <mxGeometry x="913.25" y="757" width="120" height="150" as="geometry" />
        </mxCell>
        <mxCell id="Htbz3_5xFDLYGNEnt884-22" value="" style="rounded=0;whiteSpace=wrap;html=1;fillColor=none;" vertex="1" parent="1">
          <mxGeometry x="1093.25" y="767" width="80" height="100" as="geometry" />
        </mxCell>
        <mxCell id="Htbz3_5xFDLYGNEnt884-33" value="" style="rounded=0;whiteSpace=wrap;html=1;fillColor=none;" vertex="1" parent="1">
          <mxGeometry x="1255.75" y="767" width="80" height="100" as="geometry" />
        </mxCell>
        <mxCell id="Htbz3_5xFDLYGNEnt884-35" value="" style="rounded=0;whiteSpace=wrap;html=1;fontSize=15;fillColor=none;" vertex="1" parent="1">
          <mxGeometry x="1235.75" y="757" width="120" height="150" as="geometry" />
        </mxCell>
        <mxCell id="Htbz3_5xFDLYGNEnt884-24" value="" style="rounded=0;whiteSpace=wrap;html=1;fontSize=15;fillColor=none;" vertex="1" parent="1">
          <mxGeometry x="1073.25" y="757" width="120" height="150" as="geometry" />
        </mxCell>
        <mxCell id="Htbz3_5xFDLYGNEnt884-46" value="" style="rounded=0;whiteSpace=wrap;html=1;fontSize=15;fillColor=none;strokeColor=#000000;" vertex="1" parent="1">
          <mxGeometry x="893.25" y="744" width="480" height="280" as="geometry" />
        </mxCell>
        <mxCell id="Htbz3_5xFDLYGNEnt884-18" value="" style="rounded=0;whiteSpace=wrap;html=1;fontSize=15;fillColor=none;" vertex="1" parent="1">
          <mxGeometry x="903.25" y="545" width="140" height="369" as="geometry" />
        </mxCell>
        <mxCell id="-QjtrjUzRDEMRZ5MF8oH-47" value="Architecture" style="text;html=1;resizable=0;points=[];autosize=1;align=left;verticalAlign=top;spacingTop=-4;fontSize=30;fontStyle=1" parent="1" vertex="1">
          <mxGeometry x="56.5" y="64.5" width="190" height="40" as="geometry" />
        </mxCell>
        <mxCell id="-QjtrjUzRDEMRZ5MF8oH-48" value="demo-wordpress" style="text;html=1;resizable=0;points=[];autosize=1;align=left;verticalAlign=top;spacingTop=-4;fontSize=16;" parent="1" vertex="1">
          <mxGeometry x="56.5" y="114.5" width="130" height="20" as="geometry" />
        </mxCell>
        <mxCell id="SCVMTBWpLvtzJIhz15lM-1" value="" style="line;strokeWidth=2;html=1;fontSize=14;" parent="1" vertex="1">
          <mxGeometry x="52.5" y="139.5" width="1060" height="10" as="geometry" />
        </mxCell>
        <mxCell id="Htbz3_5xFDLYGNEnt884-3" value="" style="sketch=0;outlineConnect=0;fontColor=#232F3E;gradientColor=none;fillColor=#D45B07;strokeColor=none;dashed=0;verticalLabelPosition=bottom;verticalAlign=top;align=center;html=1;fontSize=12;fontStyle=0;aspect=fixed;pointerEvents=1;shape=mxgraph.aws4.t3_instance;" vertex="1" parent="1">
          <mxGeometry x="951.25" y="783.5" width="48" height="48" as="geometry" />
        </mxCell>
        <mxCell id="Htbz3_5xFDLYGNEnt884-5" value="&lt;font style=&quot;font-size: 15px&quot;&gt;SG&lt;/font&gt;" style="text;html=1;resizable=0;autosize=1;align=center;verticalAlign=middle;points=[];fillColor=none;strokeColor=none;rounded=0;" vertex="1" parent="1">
          <mxGeometry x="953.25" y="838" width="40" height="20" as="geometry" />
        </mxCell>
        <mxCell id="Htbz3_5xFDLYGNEnt884-13" value="Private Subnet" style="text;html=1;resizable=0;autosize=1;align=center;verticalAlign=middle;points=[];fillColor=none;strokeColor=none;rounded=0;fontSize=15;" vertex="1" parent="1">
          <mxGeometry x="920.25" y="882" width="110" height="20" as="geometry" />
        </mxCell>
        <mxCell id="Htbz3_5xFDLYGNEnt884-14" value="" style="rounded=0;whiteSpace=wrap;html=1;fontSize=15;fillColor=none;" vertex="1" parent="1">
          <mxGeometry x="913.25" y="577.5" width="120" height="150" as="geometry" />
        </mxCell>
        <mxCell id="Htbz3_5xFDLYGNEnt884-15" value="Public Subnet" style="text;html=1;resizable=0;autosize=1;align=center;verticalAlign=middle;points=[];fillColor=none;strokeColor=none;rounded=0;fontSize=15;" vertex="1" parent="1">
          <mxGeometry x="920.25" y="585" width="110" height="20" as="geometry" />
        </mxCell>
        <mxCell id="Htbz3_5xFDLYGNEnt884-16" value="" style="outlineConnect=0;dashed=0;verticalLabelPosition=bottom;verticalAlign=top;align=center;html=1;shape=mxgraph.aws3.vpc_nat_gateway;fillColor=#F58536;gradientColor=none;fontSize=15;" vertex="1" parent="1">
          <mxGeometry x="938.75" y="611" width="69" height="72" as="geometry" />
        </mxCell>
        <mxCell id="Htbz3_5xFDLYGNEnt884-17" value="NAT GW" style="text;html=1;resizable=0;autosize=1;align=center;verticalAlign=middle;points=[];fillColor=none;strokeColor=none;rounded=0;fontSize=15;" vertex="1" parent="1">
          <mxGeometry x="938.25" y="685" width="70" height="20" as="geometry" />
        </mxCell>
        <mxCell id="Htbz3_5xFDLYGNEnt884-19" value="AZ1" style="text;html=1;resizable=0;autosize=1;align=center;verticalAlign=middle;points=[];fillColor=none;strokeColor=none;rounded=0;fontSize=15;" vertex="1" parent="1">
          <mxGeometry x="955.25" y="550" width="40" height="20" as="geometry" />
        </mxCell>
        <mxCell id="Htbz3_5xFDLYGNEnt884-20" value="" style="rounded=0;whiteSpace=wrap;html=1;fontSize=15;fillColor=none;" vertex="1" parent="1">
          <mxGeometry x="1063.25" y="545" width="140" height="369" as="geometry" />
        </mxCell>
        <mxCell id="Htbz3_5xFDLYGNEnt884-21" value="" style="sketch=0;outlineConnect=0;fontColor=#232F3E;gradientColor=none;fillColor=#D45B07;strokeColor=none;dashed=0;verticalLabelPosition=bottom;verticalAlign=top;align=center;html=1;fontSize=12;fontStyle=0;aspect=fixed;pointerEvents=1;shape=mxgraph.aws4.t3_instance;" vertex="1" parent="1">
          <mxGeometry x="1111.25" y="783.5" width="48" height="48" as="geometry" />
        </mxCell>
        <mxCell id="Htbz3_5xFDLYGNEnt884-23" value="&lt;font style=&quot;font-size: 15px&quot;&gt;SG&lt;/font&gt;" style="text;html=1;resizable=0;autosize=1;align=center;verticalAlign=middle;points=[];fillColor=none;strokeColor=none;rounded=0;" vertex="1" parent="1">
          <mxGeometry x="1113.25" y="838" width="40" height="20" as="geometry" />
        </mxCell>
        <mxCell id="Htbz3_5xFDLYGNEnt884-25" value="Private Subnet" style="text;html=1;resizable=0;autosize=1;align=center;verticalAlign=middle;points=[];fillColor=none;strokeColor=none;rounded=0;fontSize=15;" vertex="1" parent="1">
          <mxGeometry x="1080.25" y="882" width="110" height="20" as="geometry" />
        </mxCell>
        <mxCell id="Htbz3_5xFDLYGNEnt884-26" value="" style="rounded=0;whiteSpace=wrap;html=1;fontSize=15;fillColor=none;" vertex="1" parent="1">
          <mxGeometry x="1073.25" y="577.5" width="120" height="150" as="geometry" />
        </mxCell>
        <mxCell id="Htbz3_5xFDLYGNEnt884-27" value="Public Subnet" style="text;html=1;resizable=0;autosize=1;align=center;verticalAlign=middle;points=[];fillColor=none;strokeColor=none;rounded=0;fontSize=15;" vertex="1" parent="1">
          <mxGeometry x="1080.25" y="585" width="110" height="20" as="geometry" />
        </mxCell>
        <mxCell id="Htbz3_5xFDLYGNEnt884-28" value="" style="outlineConnect=0;dashed=0;verticalLabelPosition=bottom;verticalAlign=top;align=center;html=1;shape=mxgraph.aws3.vpc_nat_gateway;fillColor=#F58536;gradientColor=none;fontSize=15;" vertex="1" parent="1">
          <mxGeometry x="1098.75" y="611" width="69" height="72" as="geometry" />
        </mxCell>
        <mxCell id="Htbz3_5xFDLYGNEnt884-29" value="NAT GW" style="text;html=1;resizable=0;autosize=1;align=center;verticalAlign=middle;points=[];fillColor=none;strokeColor=none;rounded=0;fontSize=15;" vertex="1" parent="1">
          <mxGeometry x="1098.25" y="685" width="70" height="20" as="geometry" />
        </mxCell>
        <mxCell id="Htbz3_5xFDLYGNEnt884-30" value="AZ2" style="text;html=1;resizable=0;autosize=1;align=center;verticalAlign=middle;points=[];fillColor=none;strokeColor=none;rounded=0;fontSize=15;" vertex="1" parent="1">
          <mxGeometry x="1115.25" y="550" width="40" height="20" as="geometry" />
        </mxCell>
        <mxCell id="Htbz3_5xFDLYGNEnt884-31" value="" style="rounded=0;whiteSpace=wrap;html=1;fontSize=15;fillColor=none;" vertex="1" parent="1">
          <mxGeometry x="1225.75" y="545" width="140" height="369" as="geometry" />
        </mxCell>
        <mxCell id="Htbz3_5xFDLYGNEnt884-32" value="" style="sketch=0;outlineConnect=0;fontColor=#232F3E;gradientColor=none;fillColor=#D45B07;strokeColor=none;dashed=0;verticalLabelPosition=bottom;verticalAlign=top;align=center;html=1;fontSize=12;fontStyle=0;aspect=fixed;pointerEvents=1;shape=mxgraph.aws4.t3_instance;" vertex="1" parent="1">
          <mxGeometry x="1273.75" y="783.5" width="48" height="48" as="geometry" />
        </mxCell>
        <mxCell id="Htbz3_5xFDLYGNEnt884-34" value="&lt;font style=&quot;font-size: 15px&quot;&gt;SG&lt;/font&gt;" style="text;html=1;resizable=0;autosize=1;align=center;verticalAlign=middle;points=[];fillColor=none;strokeColor=none;rounded=0;" vertex="1" parent="1">
          <mxGeometry x="1275.75" y="838" width="40" height="20" as="geometry" />
        </mxCell>
        <mxCell id="Htbz3_5xFDLYGNEnt884-36" value="Private Subnet" style="text;html=1;resizable=0;autosize=1;align=center;verticalAlign=middle;points=[];fillColor=none;strokeColor=none;rounded=0;fontSize=15;" vertex="1" parent="1">
          <mxGeometry x="1242.75" y="882" width="110" height="20" as="geometry" />
        </mxCell>
        <mxCell id="Htbz3_5xFDLYGNEnt884-37" value="" style="rounded=0;whiteSpace=wrap;html=1;fontSize=15;fillColor=none;" vertex="1" parent="1">
          <mxGeometry x="1235.75" y="577.5" width="120" height="150" as="geometry" />
        </mxCell>
        <mxCell id="Htbz3_5xFDLYGNEnt884-38" value="Public Subnet" style="text;html=1;resizable=0;autosize=1;align=center;verticalAlign=middle;points=[];fillColor=none;strokeColor=none;rounded=0;fontSize=15;" vertex="1" parent="1">
          <mxGeometry x="1242.75" y="585" width="110" height="20" as="geometry" />
        </mxCell>
        <mxCell id="Htbz3_5xFDLYGNEnt884-39" value="" style="outlineConnect=0;dashed=0;verticalLabelPosition=bottom;verticalAlign=top;align=center;html=1;shape=mxgraph.aws3.vpc_nat_gateway;fillColor=#F58536;gradientColor=none;fontSize=15;" vertex="1" parent="1">
          <mxGeometry x="1261.25" y="611" width="69" height="72" as="geometry" />
        </mxCell>
        <mxCell id="Htbz3_5xFDLYGNEnt884-40" value="NAT GW" style="text;html=1;resizable=0;autosize=1;align=center;verticalAlign=middle;points=[];fillColor=none;strokeColor=none;rounded=0;fontSize=15;" vertex="1" parent="1">
          <mxGeometry x="1260.75" y="685" width="70" height="20" as="geometry" />
        </mxCell>
        <mxCell id="Htbz3_5xFDLYGNEnt884-41" value="AZ3" style="text;html=1;resizable=0;autosize=1;align=center;verticalAlign=middle;points=[];fillColor=none;strokeColor=none;rounded=0;fontSize=15;" vertex="1" parent="1">
          <mxGeometry x="1277.75" y="550" width="40" height="20" as="geometry" />
        </mxCell>
        <mxCell id="Htbz3_5xFDLYGNEnt884-42" value="" style="outlineConnect=0;dashed=0;verticalLabelPosition=bottom;verticalAlign=top;align=center;html=1;shape=mxgraph.aws3.classic_load_balancer;fillColor=#F58534;gradientColor=none;fontSize=15;" vertex="1" parent="1">
          <mxGeometry x="1031.25" y="517.5" width="49" height="52.5" as="geometry" />
        </mxCell>
        <mxCell id="Htbz3_5xFDLYGNEnt884-43" value="" style="outlineConnect=0;dashed=0;verticalLabelPosition=bottom;verticalAlign=top;align=center;html=1;shape=mxgraph.aws3.classic_load_balancer;fillColor=#F58534;gradientColor=none;fontSize=15;" vertex="1" parent="1">
          <mxGeometry x="1190.25" y="517.5" width="49" height="52.5" as="geometry" />
        </mxCell>
        <mxCell id="Htbz3_5xFDLYGNEnt884-44" value="ELB" style="text;html=1;resizable=0;autosize=1;align=center;verticalAlign=middle;points=[];fillColor=none;strokeColor=none;rounded=0;fontSize=15;" vertex="1" parent="1">
          <mxGeometry x="1034.75" y="494" width="40" height="20" as="geometry" />
        </mxCell>
        <mxCell id="Htbz3_5xFDLYGNEnt884-45" value="ELB" style="text;html=1;resizable=0;autosize=1;align=center;verticalAlign=middle;points=[];fillColor=none;strokeColor=none;rounded=0;fontSize=15;" vertex="1" parent="1">
          <mxGeometry x="1194.75" y="494" width="40" height="20" as="geometry" />
        </mxCell>
        <mxCell id="Htbz3_5xFDLYGNEnt884-48" value="" style="sketch=0;points=[[0,0,0],[0.25,0,0],[0.5,0,0],[0.75,0,0],[1,0,0],[0,1,0],[0.25,1,0],[0.5,1,0],[0.75,1,0],[1,1,0],[0,0.25,0],[0,0.5,0],[0,0.75,0],[1,0.25,0],[1,0.5,0],[1,0.75,0]];outlineConnect=0;fontColor=#232F3E;gradientColor=#F78E04;gradientDirection=north;fillColor=#D05C17;strokeColor=#ffffff;dashed=0;verticalLabelPosition=bottom;verticalAlign=top;align=center;html=1;fontSize=12;fontStyle=0;aspect=fixed;shape=mxgraph.aws4.resourceIcon;resIcon=mxgraph.aws4.eks;" vertex="1" parent="1">
          <mxGeometry x="1105.25" y="934" width="60" height="60" as="geometry" />
        </mxCell>
        <mxCell id="Htbz3_5xFDLYGNEnt884-54" value="" style="edgeStyle=orthogonalEdgeStyle;html=1;endArrow=block;elbow=vertical;startArrow=block;startFill=1;endFill=1;strokeColor=#545B64;rounded=0;fontSize=15;fontColor=#F8EDD2;" edge="1" parent="1" source="Htbz3_5xFDLYGNEnt884-48" target="Htbz3_5xFDLYGNEnt884-32">
          <mxGeometry width="100" relative="1" as="geometry">
            <mxPoint x="1223.25" y="955" as="sourcePoint" />
            <mxPoint x="1323.25" y="955" as="targetPoint" />
          </mxGeometry>
        </mxCell>
        <mxCell id="Htbz3_5xFDLYGNEnt884-55" value="" style="edgeStyle=orthogonalEdgeStyle;html=1;endArrow=block;elbow=vertical;startArrow=block;startFill=1;endFill=1;strokeColor=#545B64;rounded=0;fontSize=15;fontColor=#F8EDD2;exitX=0;exitY=0.5;exitDx=0;exitDy=0;exitPerimeter=0;" edge="1" parent="1" source="Htbz3_5xFDLYGNEnt884-48" target="Htbz3_5xFDLYGNEnt884-3">
          <mxGeometry width="100" relative="1" as="geometry">
            <mxPoint x="1173.25" y="1024.0588235294117" as="sourcePoint" />
            <mxPoint x="1307.7794117647059" y="841.4999999999998" as="targetPoint" />
          </mxGeometry>
        </mxCell>
        <mxCell id="Htbz3_5xFDLYGNEnt884-56" value="" style="edgeStyle=orthogonalEdgeStyle;html=1;endArrow=block;elbow=vertical;startArrow=block;startFill=1;endFill=1;strokeColor=#545B64;rounded=0;fontSize=15;fontColor=#F8EDD2;exitX=0.5;exitY=0;exitDx=0;exitDy=0;exitPerimeter=0;" edge="1" parent="1" source="Htbz3_5xFDLYGNEnt884-48" target="Htbz3_5xFDLYGNEnt884-21">
          <mxGeometry width="100" relative="1" as="geometry">
            <mxPoint x="1173.25" y="1024.0588235294117" as="sourcePoint" />
            <mxPoint x="1307.7794117647059" y="841.4999999999998" as="targetPoint" />
          </mxGeometry>
        </mxCell>
        <mxCell id="Htbz3_5xFDLYGNEnt884-57" style="edgeStyle=orthogonalEdgeStyle;rounded=0;orthogonalLoop=1;jettySize=auto;html=1;exitX=0.5;exitY=1;exitDx=0;exitDy=0;fontSize=15;fontColor=#F8EDD2;" edge="1" parent="1">
          <mxGeometry relative="1" as="geometry">
            <mxPoint x="1130" y="994.0000000000002" as="sourcePoint" />
            <mxPoint x="1130" y="994.0000000000002" as="targetPoint" />
          </mxGeometry>
        </mxCell>
        <mxCell id="Htbz3_5xFDLYGNEnt884-58" value="&lt;font style=&quot;font-size: 15px&quot;&gt;SG&lt;/font&gt;" style="text;html=1;resizable=0;autosize=1;align=center;verticalAlign=middle;points=[];fillColor=none;strokeColor=none;rounded=0;" vertex="1" parent="1">
          <mxGeometry x="903.25" y="994" width="40" height="20" as="geometry" />
        </mxCell>
        <mxCell id="Htbz3_5xFDLYGNEnt884-60" value="EKS" style="text;html=1;resizable=0;autosize=1;align=center;verticalAlign=middle;points=[];fillColor=none;strokeColor=none;rounded=0;fontSize=15;" vertex="1" parent="1">
          <mxGeometry x="1110.25" y="994" width="50" height="20" as="geometry" />
        </mxCell>
        <mxCell id="Htbz3_5xFDLYGNEnt884-61" value="ACL" style="text;html=1;resizable=0;autosize=1;align=center;verticalAlign=middle;points=[];fillColor=none;strokeColor=none;rounded=0;fontSize=15;" vertex="1" parent="1">
          <mxGeometry x="1412.25" y="773.5" width="40" height="20" as="geometry" />
        </mxCell>
        <mxCell id="Htbz3_5xFDLYGNEnt884-66" value="" style="sketch=0;outlineConnect=0;fontColor=#232F3E;gradientColor=none;fillColor=#6600CC;strokeColor=none;dashed=0;verticalLabelPosition=bottom;verticalAlign=top;align=center;html=1;fontSize=12;fontStyle=0;aspect=fixed;pointerEvents=1;shape=mxgraph.aws4.network_access_control_list;shadow=0;labelBackgroundColor=none;" vertex="1" parent="1">
          <mxGeometry x="1393.25" y="695.5" width="78" height="78" as="geometry" />
        </mxCell>
        <mxCell id="Htbz3_5xFDLYGNEnt884-70" value="" style="outlineConnect=0;dashed=0;verticalLabelPosition=bottom;verticalAlign=top;align=center;html=1;shape=mxgraph.aws3.route_table;fillColor=#F58536;gradientColor=none;shadow=0;labelBackgroundColor=none;sketch=0;fontSize=15;fontColor=#DBD4EE;strokeColor=#66FFFF;" vertex="1" parent="1">
          <mxGeometry x="1387.25" y="577.5" width="65" height="53.5" as="geometry" />
        </mxCell>
        <mxCell id="Htbz3_5xFDLYGNEnt884-71" value="" style="outlineConnect=0;dashed=0;verticalLabelPosition=bottom;verticalAlign=top;align=center;html=1;shape=mxgraph.aws3.route_table;fillColor=#F58536;gradientColor=none;shadow=0;labelBackgroundColor=none;sketch=0;fontSize=15;fontColor=#DBD4EE;strokeColor=#66FFFF;" vertex="1" parent="1">
          <mxGeometry x="1387.25" y="838" width="65" height="53.5" as="geometry" />
        </mxCell>
        <mxCell id="Htbz3_5xFDLYGNEnt884-72" value="Route Table" style="text;html=1;resizable=0;autosize=1;align=center;verticalAlign=middle;points=[];fillColor=none;strokeColor=none;rounded=0;fontSize=15;" vertex="1" parent="1">
          <mxGeometry x="1369.75" y="557.5" width="100" height="20" as="geometry" />
        </mxCell>
        <mxCell id="Htbz3_5xFDLYGNEnt884-73" value="Route Table" style="text;html=1;resizable=0;autosize=1;align=center;verticalAlign=middle;points=[];fillColor=none;strokeColor=none;rounded=0;fontSize=15;" vertex="1" parent="1">
          <mxGeometry x="1365.75" y="891.5" width="100" height="20" as="geometry" />
        </mxCell>
        <mxCell id="Htbz3_5xFDLYGNEnt884-74" value="" style="rounded=0;whiteSpace=wrap;html=1;shadow=0;labelBackgroundColor=none;sketch=0;fontSize=15;fontColor=#DBD4EE;strokeColor=#FFB570;fillColor=none;gradientColor=none;" vertex="1" parent="1">
          <mxGeometry x="883.25" y="554" width="580" height="180" as="geometry" />
        </mxCell>
        <mxCell id="Htbz3_5xFDLYGNEnt884-77" value="" style="sketch=0;points=[[0,0,0],[0.25,0,0],[0.5,0,0],[0.75,0,0],[1,0,0],[0,1,0],[0.25,1,0],[0.5,1,0],[0.75,1,0],[1,1,0],[0,0.25,0],[0,0.5,0],[0,0.75,0],[1,0.25,0],[1,0.5,0],[1,0.75,0]];outlineConnect=0;fontColor=#232F3E;gradientColor=#F78E04;gradientDirection=north;fillColor=#D05C17;strokeColor=#ffffff;dashed=0;verticalLabelPosition=bottom;verticalAlign=top;align=center;html=1;fontSize=12;fontStyle=0;aspect=fixed;shape=mxgraph.aws4.resourceIcon;resIcon=mxgraph.aws4.auto_scaling2;shadow=0;labelBackgroundColor=none;" vertex="1" parent="1">
          <mxGeometry x="813.25" y="784" width="48" height="48" as="geometry" />
        </mxCell>
        <mxCell id="Htbz3_5xFDLYGNEnt884-78" value="&lt;font style=&quot;font-size: 15px&quot;&gt;ASG&lt;/font&gt;" style="text;html=1;resizable=0;autosize=1;align=center;verticalAlign=middle;points=[];fillColor=none;strokeColor=none;rounded=0;" vertex="1" parent="1">
          <mxGeometry x="812.25" y="832" width="50" height="20" as="geometry" />
        </mxCell>
        <mxCell id="Htbz3_5xFDLYGNEnt884-79" value="" style="outlineConnect=0;dashed=0;verticalLabelPosition=bottom;verticalAlign=top;align=center;html=1;shape=mxgraph.aws3.virtual_private_cloud;fillColor=#F58534;gradientColor=none;shadow=0;labelBackgroundColor=none;sketch=0;fontSize=15;fontColor=#DBD4EE;strokeColor=#FFB570;" vertex="1" parent="1">
          <mxGeometry x="1493.25" y="460" width="79.5" height="54" as="geometry" />
        </mxCell>
        <mxCell id="Htbz3_5xFDLYGNEnt884-81" value="" style="outlineConnect=0;dashed=0;verticalLabelPosition=bottom;verticalAlign=top;align=center;html=1;shape=mxgraph.aws3.internet_gateway;fillColor=#F58534;gradientColor=none;shadow=0;labelBackgroundColor=none;sketch=0;fontSize=15;fontColor=#DBD4EE;strokeColor=#000000;" vertex="1" parent="1">
          <mxGeometry x="1517.25" y="701.75" width="49.5" height="55.5" as="geometry" />
        </mxCell>
        <mxCell id="Htbz3_5xFDLYGNEnt884-82" value="IGW" style="text;html=1;resizable=0;autosize=1;align=center;verticalAlign=middle;points=[];fillColor=none;strokeColor=none;rounded=0;fontSize=15;" vertex="1" parent="1">
          <mxGeometry x="1519.25" y="758" width="50" height="20" as="geometry" />
        </mxCell>
        <mxCell id="Htbz3_5xFDLYGNEnt884-83" value="" style="shape=image;verticalLabelPosition=bottom;labelBackgroundColor=default;verticalAlign=top;aspect=fixed;imageAspect=0;image=https://github.githubassets.com/images/modules/logos_page/GitHub-Mark.png;" vertex="1" parent="1">
          <mxGeometry x="611.75" y="1169.25" width="66.5" height="66.5" as="geometry" />
        </mxCell>
        <mxCell id="Htbz3_5xFDLYGNEnt884-84" value="demo-wordpress-iac" style="text;html=1;resizable=0;autosize=1;align=center;verticalAlign=middle;points=[];fillColor=none;strokeColor=none;rounded=0;fontSize=15;" vertex="1" parent="1">
          <mxGeometry x="570" y="1149.25" width="150" height="20" as="geometry" />
        </mxCell>
        <mxCell id="Htbz3_5xFDLYGNEnt884-85" value="" style="shape=image;verticalLabelPosition=bottom;labelBackgroundColor=default;verticalAlign=top;aspect=fixed;imageAspect=0;image=data:image/png,iVBORw0KGgoAAAANSUhEUgAAANMAAADvCAMAAABfYRE9AAAAyVBMVEX///9cTuVAQLJTRORQP+S0r/JZSuU3N7CQkM/5+P6wq/GSks9aTOVNPONVRuRRQeQsLK07O7H39v5LOePa1/jl4/p8cukzM6+blO6gme/Hw/VjVubx8P3c3O8nJ6zT0PeLg+u6tfN4beno6PVvY+iRiexpXOerpfC/u/SBd+qknu/g3vlmWebFwfWlpdeJicyurtvKyudPT7dgYL1FRbSVje1/f8jW1PjNyfZzc8PBweNoaL/S0uuZmdLFxeVjY762tt9OTrdDLuKATAZ9AAAH3UlEQVR4nO2d/1fTPBTG025Qh1vXDmGAYwoDJ6igIt8UfYH//496k7IBzdI2SZPe3J48v4hH5ORz6NP1Se+9IcQLh0Zfr6GXYFy9ePNkBr0Iw+qt99cHpz3oZRgVZQqCTv8z9DpMKmMK+t2jd9ArMacnpiBYH3ycQK/FlJZMQRB359CLMaQXpqDf6e9BL8eIXjExWx1+gV6QAeWYmK2OR9BLqi2OidlqA3pNdbXCFPSH72+gV1VPq0yZrbag11VHIiZmq0vEthIzUVvFa9BL01YRE7PVB+jFaaqQiVINTnDaqoSJ2qq7A70+HZUy0RTSOYBeoboqmOh9/RO6cF/FxO7rJ8hSSDUTpdrEFe5lmLCFezkmXOFekoldgGjCvTQTfVwaIgn3Ckw03Acowr0KE3tcOkIQ7tWYshTivK1UmZitXA/36kw0hQRuh3sNJmarbZdTiBZTZit3H5c0mZitnE0h2kzUVl8dDff6TFkKcdJWdZgo1eM3aACB6jEFHRc/q+oyubgL6JkKmdx4BlyswhDT/BC+yGJ0e/70hSGmtS54kcVZkrx9+soUUyfoxJAPFr/DcRgZZwr6XbDapf2LJAxtMGX7MBC2mpxP09AWE3trcNo40tk4CkOLTEG/Ezf7uPSPGim0y9Tw9ub+nyQM7TM1WLvUO0/SsBkmdrNoYnvzexKFYWNM9B+sb2/++DkOw0aZbNcuzW5zl10zTOwCtFa71Hs7XSFqhCkIYkuR8T6NVokaYrJTu3T3MxERNcVkYXtzdiu67BplYp9WO+ZSSO/v6q0BgInZylQKuY/4+zcUE7XVJxPbm3cXBUaCYMq2N+umkMlVyWUHwcSodmvZ6m8ivH+DMtHvjfWLLH6HZUaCY9JPIfsVRgJk0kwho6vCTyQXmHTC/XM0d5aJFVmohPt/vySMBM2U2Uo2hVAjyV120ExZB4WMrUbnkkZygUmuyOK7tJHcYKousvihYCRHmCpSyOyPipF4psE6EFNJkQW3xyXN9Gbx/98ddWv8ppbhXIuJNSaJ3jMqG4lnIuTzut6CDDCJiizuVva4NJgI2dW+AOsysQswZyvRHpcWE5mcaFLVZ2J7ZjvLPTPxHpceEyHXn7RsZYKJ/pThYhUyiUKeiZCDTgzFFAwWa9C7NxQzkd5OV/kCNMTUtcVEyNb2QPECdJ+JkA/vh0pUGJjo6mIVW+FgIqPLTXlbIWGitjqUvq+jYSLkRtZWiJgI2RhI2QoVExl9lHlcwsVEyBcJW2FjIuTbeqeCCh8TIfNuua0wMpFJua1QMtFwX5ZCkDKVhnu0TKRXGO7xMhEyKwj3mJloChHaCjcTDfeCFIKdiYb7lRSCnkkQ7lvAtJJCWsFEU8jwla1awkTD/ct9vS1MLIUsbdUeJmqr4CmFtImJppDMVu1ioimEflq1jIna6qg7bBsTDffxvHVMpPeufUxLeSbPBMa0WascxgzT1CwT+dav85sywRRF380i0TvgqcJrK/NM6fTcRs9zxfamTaY0+WOriVa7dqkm0/jhnyUips+xlq1qMUXJmUUipl31IotaTGlixUh5bWnULukzJf/tWydiuv6qVmShzzQOLRppvpv764GirfSYorFVI61t5vtxeztKF6AOUzq9stutvdbhG0y2thWoNJiSC9tGYs+w/BTPG3lbKTONw3vLRMvncn6K59pQsnZJkSlN/lones4a/BTP19ubxpjS5LaRaSIvMzEG+Tb3rUOZkkAVpuTnXRNEuUzIH9Gx3N40wxRF980QcTmXbzCpKrKQZ0qTt81NUcpnd77NfXJcYSs5pnTajJGETKsNJhUpRIopeWjISAVMWSV87jLZK6tdkmCKxsajuTITa3PPN5icFqeQSqY0edP4ODLhXhjf5j45KdqyqGBKp9aiuSpT1mCSW0yRrcqZxg8/micq2bPk29zFtUtlTJYTRbFK9mG5NvferuACLGZKp+dQpwGV7S3zR3QIapcKmZqK5iKV75fzM+xWapcKmMa/bO5xValyJgbX5n6Qf1wSMkVTICMtVPleg59hl29MEjClyRXwsVoS72r4NvfXtUurTPajeaWk3j/x0yNugmW455nG6W8ACE6S79RibobdxqLfL88E9omUl/R7wuF7Ltxnn1avmdIptJEWUpiJwR0UmDUmvWJywEgLqbzP5WfY7QXDZ6Zx6ICRFlJ7R83PsJs/Lr6YNrHHJSvF9+58uJ9xfzoh9ZkYbh/RwaRRH2F0hp0NadV8mJthZ0V6dSyGZthZkm5tjqtHdDDVmYlRb4adPdWpoaozw86matWF0RQCvX6RDM3EcEqG6veckmfyTFDyTJ4JSp7JM0HJM3kmKHkmzwQlz+SZoOSZPBOUPJNngpJn8kxQ8kyeCUqeyTNBacPMTAyn1Nuo7NtCx1RreoSzTNpHdDjNJJ7iiZ1Jtc0dBVM2PULjAnSbSf2IDgxMCm3uiJik29wxMcm2ueNiUjiiAxHTS4NJm5jI5Fh2hBgeJrkjOrAxsQYTmWSFi4mQucR9HRuTzMk36JgkZtghZGLDcUuHsqBkKp0egZaJzEpshZWp7OQbvEzFJ99gZio6+QY1U8HJN8iZhCffoGcSHGvbAqaVPbM2MPETV9vBlN8zawsTe2kVt46JjJa2ahHT81CWVjEt9sxaxpTtmbWOiYwuH6u/CZ2+VH+Ll5eXlxH9DyvrxXjEj3C+AAAAAElFTkSuQmCC;" vertex="1" parent="1">
          <mxGeometry x="860" y="1117.5" width="44.14" height="50" as="geometry" />
        </mxCell>
        <mxCell id="Htbz3_5xFDLYGNEnt884-86" value="" style="shape=image;verticalLabelPosition=bottom;labelBackgroundColor=default;verticalAlign=top;aspect=fixed;imageAspect=0;image=data:image/png,iVBORw0KGgoAAAANSUhEUgAAANMAAADvCAMAAABfYRE9AAAAyVBMVEX///9cTuVAQLJTRORQP+S0r/JZSuU3N7CQkM/5+P6wq/GSks9aTOVNPONVRuRRQeQsLK07O7H39v5LOePa1/jl4/p8cukzM6+blO6gme/Hw/VjVubx8P3c3O8nJ6zT0PeLg+u6tfN4beno6PVvY+iRiexpXOerpfC/u/SBd+qknu/g3vlmWebFwfWlpdeJicyurtvKyudPT7dgYL1FRbSVje1/f8jW1PjNyfZzc8PBweNoaL/S0uuZmdLFxeVjY762tt9OTrdDLuKATAZ9AAAH3UlEQVR4nO2d/1fTPBTG025Qh1vXDmGAYwoDJ6igIt8UfYH//496k7IBzdI2SZPe3J48v4hH5ORz6NP1Se+9IcQLh0Zfr6GXYFy9ePNkBr0Iw+qt99cHpz3oZRgVZQqCTv8z9DpMKmMK+t2jd9ArMacnpiBYH3ycQK/FlJZMQRB359CLMaQXpqDf6e9BL8eIXjExWx1+gV6QAeWYmK2OR9BLqi2OidlqA3pNdbXCFPSH72+gV1VPq0yZrbag11VHIiZmq0vEthIzUVvFa9BL01YRE7PVB+jFaaqQiVINTnDaqoSJ2qq7A70+HZUy0RTSOYBeoboqmOh9/RO6cF/FxO7rJ8hSSDUTpdrEFe5lmLCFezkmXOFekoldgGjCvTQTfVwaIgn3Ckw03Acowr0KE3tcOkIQ7tWYshTivK1UmZitXA/36kw0hQRuh3sNJmarbZdTiBZTZit3H5c0mZitnE0h2kzUVl8dDff6TFkKcdJWdZgo1eM3aACB6jEFHRc/q+oyubgL6JkKmdx4BlyswhDT/BC+yGJ0e/70hSGmtS54kcVZkrx9+soUUyfoxJAPFr/DcRgZZwr6XbDapf2LJAxtMGX7MBC2mpxP09AWE3trcNo40tk4CkOLTEG/Ezf7uPSPGim0y9Tw9ub+nyQM7TM1WLvUO0/SsBkmdrNoYnvzexKFYWNM9B+sb2/++DkOw0aZbNcuzW5zl10zTOwCtFa71Hs7XSFqhCkIYkuR8T6NVokaYrJTu3T3MxERNcVkYXtzdiu67BplYp9WO+ZSSO/v6q0BgInZylQKuY/4+zcUE7XVJxPbm3cXBUaCYMq2N+umkMlVyWUHwcSodmvZ6m8ivH+DMtHvjfWLLH6HZUaCY9JPIfsVRgJk0kwho6vCTyQXmHTC/XM0d5aJFVmohPt/vySMBM2U2Uo2hVAjyV120ExZB4WMrUbnkkZygUmuyOK7tJHcYKousvihYCRHmCpSyOyPipF4psE6EFNJkQW3xyXN9Gbx/98ddWv8ppbhXIuJNSaJ3jMqG4lnIuTzut6CDDCJiizuVva4NJgI2dW+AOsysQswZyvRHpcWE5mcaFLVZ2J7ZjvLPTPxHpceEyHXn7RsZYKJ/pThYhUyiUKeiZCDTgzFFAwWa9C7NxQzkd5OV/kCNMTUtcVEyNb2QPECdJ+JkA/vh0pUGJjo6mIVW+FgIqPLTXlbIWGitjqUvq+jYSLkRtZWiJgI2RhI2QoVExl9lHlcwsVEyBcJW2FjIuTbeqeCCh8TIfNuua0wMpFJua1QMtFwX5ZCkDKVhnu0TKRXGO7xMhEyKwj3mJloChHaCjcTDfeCFIKdiYb7lRSCnkkQ7lvAtJJCWsFEU8jwla1awkTD/ct9vS1MLIUsbdUeJmqr4CmFtImJppDMVu1ioimEflq1jIna6qg7bBsTDffxvHVMpPeufUxLeSbPBMa0WascxgzT1CwT+dav85sywRRF380i0TvgqcJrK/NM6fTcRs9zxfamTaY0+WOriVa7dqkm0/jhnyUips+xlq1qMUXJmUUipl31IotaTGlixUh5bWnULukzJf/tWydiuv6qVmShzzQOLRppvpv764GirfSYorFVI61t5vtxeztKF6AOUzq9stutvdbhG0y2thWoNJiSC9tGYs+w/BTPG3lbKTONw3vLRMvncn6K59pQsnZJkSlN/lones4a/BTP19ubxpjS5LaRaSIvMzEG+Tb3rUOZkkAVpuTnXRNEuUzIH9Gx3N40wxRF980QcTmXbzCpKrKQZ0qTt81NUcpnd77NfXJcYSs5pnTajJGETKsNJhUpRIopeWjISAVMWSV87jLZK6tdkmCKxsajuTITa3PPN5icFqeQSqY0edP4ODLhXhjf5j45KdqyqGBKp9aiuSpT1mCSW0yRrcqZxg8/micq2bPk29zFtUtlTJYTRbFK9mG5NvferuACLGZKp+dQpwGV7S3zR3QIapcKmZqK5iKV75fzM+xWapcKmMa/bO5xValyJgbX5n6Qf1wSMkVTICMtVPleg59hl29MEjClyRXwsVoS72r4NvfXtUurTPajeaWk3j/x0yNugmW455nG6W8ACE6S79RibobdxqLfL88E9omUl/R7wuF7Ltxnn1avmdIptJEWUpiJwR0UmDUmvWJywEgLqbzP5WfY7QXDZ6Zx6ICRFlJ7R83PsJs/Lr6YNrHHJSvF9+58uJ9xfzoh9ZkYbh/RwaRRH2F0hp0NadV8mJthZ0V6dSyGZthZkm5tjqtHdDDVmYlRb4adPdWpoaozw86matWF0RQCvX6RDM3EcEqG6veckmfyTFDyTJ4JSp7JM0HJM3kmKHkmzwQlz+SZoOSZPBOUPJNngpJn8kxQ8kyeCUqeyTNBacPMTAyn1Nuo7NtCx1RreoSzTNpHdDjNJJ7iiZ1Jtc0dBVM2PULjAnSbSf2IDgxMCm3uiJik29wxMcm2ueNiUjiiAxHTS4NJm5jI5Fh2hBgeJrkjOrAxsQYTmWSFi4mQucR9HRuTzMk36JgkZtghZGLDcUuHsqBkKp0egZaJzEpshZWp7OQbvEzFJ99gZio6+QY1U8HJN8iZhCffoGcSHGvbAqaVPbM2MPETV9vBlN8zawsTe2kVt46JjJa2ahHT81CWVjEt9sxaxpTtmbWOiYwuH6u/CZ2+VH+Ll5eXlxH9DyvrxXjEj3C+AAAAAElFTkSuQmCC;" vertex="1" parent="1">
          <mxGeometry x="860" y="1177.5" width="44.14" height="50" as="geometry" />
        </mxCell>
        <mxCell id="Htbz3_5xFDLYGNEnt884-87" value="" style="shape=image;verticalLabelPosition=bottom;labelBackgroundColor=default;verticalAlign=top;aspect=fixed;imageAspect=0;image=data:image/png,iVBORw0KGgoAAAANSUhEUgAAANMAAADvCAMAAABfYRE9AAAAyVBMVEX///9cTuVAQLJTRORQP+S0r/JZSuU3N7CQkM/5+P6wq/GSks9aTOVNPONVRuRRQeQsLK07O7H39v5LOePa1/jl4/p8cukzM6+blO6gme/Hw/VjVubx8P3c3O8nJ6zT0PeLg+u6tfN4beno6PVvY+iRiexpXOerpfC/u/SBd+qknu/g3vlmWebFwfWlpdeJicyurtvKyudPT7dgYL1FRbSVje1/f8jW1PjNyfZzc8PBweNoaL/S0uuZmdLFxeVjY762tt9OTrdDLuKATAZ9AAAH3UlEQVR4nO2d/1fTPBTG025Qh1vXDmGAYwoDJ6igIt8UfYH//496k7IBzdI2SZPe3J48v4hH5ORz6NP1Se+9IcQLh0Zfr6GXYFy9ePNkBr0Iw+qt99cHpz3oZRgVZQqCTv8z9DpMKmMK+t2jd9ArMacnpiBYH3ycQK/FlJZMQRB359CLMaQXpqDf6e9BL8eIXjExWx1+gV6QAeWYmK2OR9BLqi2OidlqA3pNdbXCFPSH72+gV1VPq0yZrbag11VHIiZmq0vEthIzUVvFa9BL01YRE7PVB+jFaaqQiVINTnDaqoSJ2qq7A70+HZUy0RTSOYBeoboqmOh9/RO6cF/FxO7rJ8hSSDUTpdrEFe5lmLCFezkmXOFekoldgGjCvTQTfVwaIgn3Ckw03Acowr0KE3tcOkIQ7tWYshTivK1UmZitXA/36kw0hQRuh3sNJmarbZdTiBZTZit3H5c0mZitnE0h2kzUVl8dDff6TFkKcdJWdZgo1eM3aACB6jEFHRc/q+oyubgL6JkKmdx4BlyswhDT/BC+yGJ0e/70hSGmtS54kcVZkrx9+soUUyfoxJAPFr/DcRgZZwr6XbDapf2LJAxtMGX7MBC2mpxP09AWE3trcNo40tk4CkOLTEG/Ezf7uPSPGim0y9Tw9ub+nyQM7TM1WLvUO0/SsBkmdrNoYnvzexKFYWNM9B+sb2/++DkOw0aZbNcuzW5zl10zTOwCtFa71Hs7XSFqhCkIYkuR8T6NVokaYrJTu3T3MxERNcVkYXtzdiu67BplYp9WO+ZSSO/v6q0BgInZylQKuY/4+zcUE7XVJxPbm3cXBUaCYMq2N+umkMlVyWUHwcSodmvZ6m8ivH+DMtHvjfWLLH6HZUaCY9JPIfsVRgJk0kwho6vCTyQXmHTC/XM0d5aJFVmohPt/vySMBM2U2Uo2hVAjyV120ExZB4WMrUbnkkZygUmuyOK7tJHcYKousvihYCRHmCpSyOyPipF4psE6EFNJkQW3xyXN9Gbx/98ddWv8ppbhXIuJNSaJ3jMqG4lnIuTzut6CDDCJiizuVva4NJgI2dW+AOsysQswZyvRHpcWE5mcaFLVZ2J7ZjvLPTPxHpceEyHXn7RsZYKJ/pThYhUyiUKeiZCDTgzFFAwWa9C7NxQzkd5OV/kCNMTUtcVEyNb2QPECdJ+JkA/vh0pUGJjo6mIVW+FgIqPLTXlbIWGitjqUvq+jYSLkRtZWiJgI2RhI2QoVExl9lHlcwsVEyBcJW2FjIuTbeqeCCh8TIfNuua0wMpFJua1QMtFwX5ZCkDKVhnu0TKRXGO7xMhEyKwj3mJloChHaCjcTDfeCFIKdiYb7lRSCnkkQ7lvAtJJCWsFEU8jwla1awkTD/ct9vS1MLIUsbdUeJmqr4CmFtImJppDMVu1ioimEflq1jIna6qg7bBsTDffxvHVMpPeufUxLeSbPBMa0WascxgzT1CwT+dav85sywRRF380i0TvgqcJrK/NM6fTcRs9zxfamTaY0+WOriVa7dqkm0/jhnyUips+xlq1qMUXJmUUipl31IotaTGlixUh5bWnULukzJf/tWydiuv6qVmShzzQOLRppvpv764GirfSYorFVI61t5vtxeztKF6AOUzq9stutvdbhG0y2thWoNJiSC9tGYs+w/BTPG3lbKTONw3vLRMvncn6K59pQsnZJkSlN/lones4a/BTP19ubxpjS5LaRaSIvMzEG+Tb3rUOZkkAVpuTnXRNEuUzIH9Gx3N40wxRF980QcTmXbzCpKrKQZ0qTt81NUcpnd77NfXJcYSs5pnTajJGETKsNJhUpRIopeWjISAVMWSV87jLZK6tdkmCKxsajuTITa3PPN5icFqeQSqY0edP4ODLhXhjf5j45KdqyqGBKp9aiuSpT1mCSW0yRrcqZxg8/micq2bPk29zFtUtlTJYTRbFK9mG5NvferuACLGZKp+dQpwGV7S3zR3QIapcKmZqK5iKV75fzM+xWapcKmMa/bO5xValyJgbX5n6Qf1wSMkVTICMtVPleg59hl29MEjClyRXwsVoS72r4NvfXtUurTPajeaWk3j/x0yNugmW455nG6W8ACE6S79RibobdxqLfL88E9omUl/R7wuF7Ltxnn1avmdIptJEWUpiJwR0UmDUmvWJywEgLqbzP5WfY7QXDZ6Zx6ICRFlJ7R83PsJs/Lr6YNrHHJSvF9+58uJ9xfzoh9ZkYbh/RwaRRH2F0hp0NadV8mJthZ0V6dSyGZthZkm5tjqtHdDDVmYlRb4adPdWpoaozw86matWF0RQCvX6RDM3EcEqG6veckmfyTFDyTJ4JSp7JM0HJM3kmKHkmzwQlz+SZoOSZPBOUPJNngpJn8kxQ8kyeCUqeyTNBacPMTAyn1Nuo7NtCx1RreoSzTNpHdDjNJJ7iiZ1Jtc0dBVM2PULjAnSbSf2IDgxMCm3uiJik29wxMcm2ueNiUjiiAxHTS4NJm5jI5Fh2hBgeJrkjOrAxsQYTmWSFi4mQucR9HRuTzMk36JgkZtghZGLDcUuHsqBkKp0egZaJzEpshZWp7OQbvEzFJ99gZio6+QY1U8HJN8iZhCffoGcSHGvbAqaVPbM2MPETV9vBlN8zawsTe2kVt46JjJa2ahHT81CWVjEt9sxaxpTtmbWOiYwuH6u/CZ2+VH+Ll5eXlxH9DyvrxXjEj3C+AAAAAElFTkSuQmCC;" vertex="1" parent="1">
          <mxGeometry x="860" y="1237.5" width="44.14" height="50" as="geometry" />
        </mxCell>
        <mxCell id="Htbz3_5xFDLYGNEnt884-88" value="" style="shape=image;verticalLabelPosition=bottom;labelBackgroundColor=default;verticalAlign=top;aspect=fixed;imageAspect=0;image=data:image/png,iVBORw0KGgoAAAANSUhEUgAAANMAAADvCAMAAABfYRE9AAAAyVBMVEX///9cTuVAQLJTRORQP+S0r/JZSuU3N7CQkM/5+P6wq/GSks9aTOVNPONVRuRRQeQsLK07O7H39v5LOePa1/jl4/p8cukzM6+blO6gme/Hw/VjVubx8P3c3O8nJ6zT0PeLg+u6tfN4beno6PVvY+iRiexpXOerpfC/u/SBd+qknu/g3vlmWebFwfWlpdeJicyurtvKyudPT7dgYL1FRbSVje1/f8jW1PjNyfZzc8PBweNoaL/S0uuZmdLFxeVjY762tt9OTrdDLuKATAZ9AAAH3UlEQVR4nO2d/1fTPBTG025Qh1vXDmGAYwoDJ6igIt8UfYH//496k7IBzdI2SZPe3J48v4hH5ORz6NP1Se+9IcQLh0Zfr6GXYFy9ePNkBr0Iw+qt99cHpz3oZRgVZQqCTv8z9DpMKmMK+t2jd9ArMacnpiBYH3ycQK/FlJZMQRB359CLMaQXpqDf6e9BL8eIXjExWx1+gV6QAeWYmK2OR9BLqi2OidlqA3pNdbXCFPSH72+gV1VPq0yZrbag11VHIiZmq0vEthIzUVvFa9BL01YRE7PVB+jFaaqQiVINTnDaqoSJ2qq7A70+HZUy0RTSOYBeoboqmOh9/RO6cF/FxO7rJ8hSSDUTpdrEFe5lmLCFezkmXOFekoldgGjCvTQTfVwaIgn3Ckw03Acowr0KE3tcOkIQ7tWYshTivK1UmZitXA/36kw0hQRuh3sNJmarbZdTiBZTZit3H5c0mZitnE0h2kzUVl8dDff6TFkKcdJWdZgo1eM3aACB6jEFHRc/q+oyubgL6JkKmdx4BlyswhDT/BC+yGJ0e/70hSGmtS54kcVZkrx9+soUUyfoxJAPFr/DcRgZZwr6XbDapf2LJAxtMGX7MBC2mpxP09AWE3trcNo40tk4CkOLTEG/Ezf7uPSPGim0y9Tw9ub+nyQM7TM1WLvUO0/SsBkmdrNoYnvzexKFYWNM9B+sb2/++DkOw0aZbNcuzW5zl10zTOwCtFa71Hs7XSFqhCkIYkuR8T6NVokaYrJTu3T3MxERNcVkYXtzdiu67BplYp9WO+ZSSO/v6q0BgInZylQKuY/4+zcUE7XVJxPbm3cXBUaCYMq2N+umkMlVyWUHwcSodmvZ6m8ivH+DMtHvjfWLLH6HZUaCY9JPIfsVRgJk0kwho6vCTyQXmHTC/XM0d5aJFVmohPt/vySMBM2U2Uo2hVAjyV120ExZB4WMrUbnkkZygUmuyOK7tJHcYKousvihYCRHmCpSyOyPipF4psE6EFNJkQW3xyXN9Gbx/98ddWv8ppbhXIuJNSaJ3jMqG4lnIuTzut6CDDCJiizuVva4NJgI2dW+AOsysQswZyvRHpcWE5mcaFLVZ2J7ZjvLPTPxHpceEyHXn7RsZYKJ/pThYhUyiUKeiZCDTgzFFAwWa9C7NxQzkd5OV/kCNMTUtcVEyNb2QPECdJ+JkA/vh0pUGJjo6mIVW+FgIqPLTXlbIWGitjqUvq+jYSLkRtZWiJgI2RhI2QoVExl9lHlcwsVEyBcJW2FjIuTbeqeCCh8TIfNuua0wMpFJua1QMtFwX5ZCkDKVhnu0TKRXGO7xMhEyKwj3mJloChHaCjcTDfeCFIKdiYb7lRSCnkkQ7lvAtJJCWsFEU8jwla1awkTD/ct9vS1MLIUsbdUeJmqr4CmFtImJppDMVu1ioimEflq1jIna6qg7bBsTDffxvHVMpPeufUxLeSbPBMa0WascxgzT1CwT+dav85sywRRF380i0TvgqcJrK/NM6fTcRs9zxfamTaY0+WOriVa7dqkm0/jhnyUips+xlq1qMUXJmUUipl31IotaTGlixUh5bWnULukzJf/tWydiuv6qVmShzzQOLRppvpv764GirfSYorFVI61t5vtxeztKF6AOUzq9stutvdbhG0y2thWoNJiSC9tGYs+w/BTPG3lbKTONw3vLRMvncn6K59pQsnZJkSlN/lones4a/BTP19ubxpjS5LaRaSIvMzEG+Tb3rUOZkkAVpuTnXRNEuUzIH9Gx3N40wxRF980QcTmXbzCpKrKQZ0qTt81NUcpnd77NfXJcYSs5pnTajJGETKsNJhUpRIopeWjISAVMWSV87jLZK6tdkmCKxsajuTITa3PPN5icFqeQSqY0edP4ODLhXhjf5j45KdqyqGBKp9aiuSpT1mCSW0yRrcqZxg8/micq2bPk29zFtUtlTJYTRbFK9mG5NvferuACLGZKp+dQpwGV7S3zR3QIapcKmZqK5iKV75fzM+xWapcKmMa/bO5xValyJgbX5n6Qf1wSMkVTICMtVPleg59hl29MEjClyRXwsVoS72r4NvfXtUurTPajeaWk3j/x0yNugmW455nG6W8ACE6S79RibobdxqLfL88E9omUl/R7wuF7Ltxnn1avmdIptJEWUpiJwR0UmDUmvWJywEgLqbzP5WfY7QXDZ6Zx6ICRFlJ7R83PsJs/Lr6YNrHHJSvF9+58uJ9xfzoh9ZkYbh/RwaRRH2F0hp0NadV8mJthZ0V6dSyGZthZkm5tjqtHdDDVmYlRb4adPdWpoaozw86matWF0RQCvX6RDM3EcEqG6veckmfyTFDyTJ4JSp7JM0HJM3kmKHkmzwQlz+SZoOSZPBOUPJNngpJn8kxQ8kyeCUqeyTNBacPMTAyn1Nuo7NtCx1RreoSzTNpHdDjNJJ7iiZ1Jtc0dBVM2PULjAnSbSf2IDgxMCm3uiJik29wxMcm2ueNiUjiiAxHTS4NJm5jI5Fh2hBgeJrkjOrAxsQYTmWSFi4mQucR9HRuTzMk36JgkZtghZGLDcUuHsqBkKp0egZaJzEpshZWp7OQbvEzFJ99gZio6+QY1U8HJN8iZhCffoGcSHGvbAqaVPbM2MPETV9vBlN8zawsTe2kVt46JjJa2ahHT81CWVjEt9sxaxpTtmbWOiYwuH6u/CZ2+VH+Ll5eXlxH9DyvrxXjEj3C+AAAAAElFTkSuQmCC;" vertex="1" parent="1">
          <mxGeometry x="920" y="1157.5" width="44.14" height="50" as="geometry" />
        </mxCell>
        <mxCell id="Htbz3_5xFDLYGNEnt884-89" value="" style="shape=image;verticalLabelPosition=bottom;labelBackgroundColor=default;verticalAlign=top;aspect=fixed;imageAspect=0;image=data:image/png,iVBORw0KGgoAAAANSUhEUgAAANMAAADvCAMAAABfYRE9AAAAyVBMVEX///9cTuVAQLJTRORQP+S0r/JZSuU3N7CQkM/5+P6wq/GSks9aTOVNPONVRuRRQeQsLK07O7H39v5LOePa1/jl4/p8cukzM6+blO6gme/Hw/VjVubx8P3c3O8nJ6zT0PeLg+u6tfN4beno6PVvY+iRiexpXOerpfC/u/SBd+qknu/g3vlmWebFwfWlpdeJicyurtvKyudPT7dgYL1FRbSVje1/f8jW1PjNyfZzc8PBweNoaL/S0uuZmdLFxeVjY762tt9OTrdDLuKATAZ9AAAH3UlEQVR4nO2d/1fTPBTG025Qh1vXDmGAYwoDJ6igIt8UfYH//496k7IBzdI2SZPe3J48v4hH5ORz6NP1Se+9IcQLh0Zfr6GXYFy9ePNkBr0Iw+qt99cHpz3oZRgVZQqCTv8z9DpMKmMK+t2jd9ArMacnpiBYH3ycQK/FlJZMQRB359CLMaQXpqDf6e9BL8eIXjExWx1+gV6QAeWYmK2OR9BLqi2OidlqA3pNdbXCFPSH72+gV1VPq0yZrbag11VHIiZmq0vEthIzUVvFa9BL01YRE7PVB+jFaaqQiVINTnDaqoSJ2qq7A70+HZUy0RTSOYBeoboqmOh9/RO6cF/FxO7rJ8hSSDUTpdrEFe5lmLCFezkmXOFekoldgGjCvTQTfVwaIgn3Ckw03Acowr0KE3tcOkIQ7tWYshTivK1UmZitXA/36kw0hQRuh3sNJmarbZdTiBZTZit3H5c0mZitnE0h2kzUVl8dDff6TFkKcdJWdZgo1eM3aACB6jEFHRc/q+oyubgL6JkKmdx4BlyswhDT/BC+yGJ0e/70hSGmtS54kcVZkrx9+soUUyfoxJAPFr/DcRgZZwr6XbDapf2LJAxtMGX7MBC2mpxP09AWE3trcNo40tk4CkOLTEG/Ezf7uPSPGim0y9Tw9ub+nyQM7TM1WLvUO0/SsBkmdrNoYnvzexKFYWNM9B+sb2/++DkOw0aZbNcuzW5zl10zTOwCtFa71Hs7XSFqhCkIYkuR8T6NVokaYrJTu3T3MxERNcVkYXtzdiu67BplYp9WO+ZSSO/v6q0BgInZylQKuY/4+zcUE7XVJxPbm3cXBUaCYMq2N+umkMlVyWUHwcSodmvZ6m8ivH+DMtHvjfWLLH6HZUaCY9JPIfsVRgJk0kwho6vCTyQXmHTC/XM0d5aJFVmohPt/vySMBM2U2Uo2hVAjyV120ExZB4WMrUbnkkZygUmuyOK7tJHcYKousvihYCRHmCpSyOyPipF4psE6EFNJkQW3xyXN9Gbx/98ddWv8ppbhXIuJNSaJ3jMqG4lnIuTzut6CDDCJiizuVva4NJgI2dW+AOsysQswZyvRHpcWE5mcaFLVZ2J7ZjvLPTPxHpceEyHXn7RsZYKJ/pThYhUyiUKeiZCDTgzFFAwWa9C7NxQzkd5OV/kCNMTUtcVEyNb2QPECdJ+JkA/vh0pUGJjo6mIVW+FgIqPLTXlbIWGitjqUvq+jYSLkRtZWiJgI2RhI2QoVExl9lHlcwsVEyBcJW2FjIuTbeqeCCh8TIfNuua0wMpFJua1QMtFwX5ZCkDKVhnu0TKRXGO7xMhEyKwj3mJloChHaCjcTDfeCFIKdiYb7lRSCnkkQ7lvAtJJCWsFEU8jwla1awkTD/ct9vS1MLIUsbdUeJmqr4CmFtImJppDMVu1ioimEflq1jIna6qg7bBsTDffxvHVMpPeufUxLeSbPBMa0WascxgzT1CwT+dav85sywRRF380i0TvgqcJrK/NM6fTcRs9zxfamTaY0+WOriVa7dqkm0/jhnyUips+xlq1qMUXJmUUipl31IotaTGlixUh5bWnULukzJf/tWydiuv6qVmShzzQOLRppvpv764GirfSYorFVI61t5vtxeztKF6AOUzq9stutvdbhG0y2thWoNJiSC9tGYs+w/BTPG3lbKTONw3vLRMvncn6K59pQsnZJkSlN/lones4a/BTP19ubxpjS5LaRaSIvMzEG+Tb3rUOZkkAVpuTnXRNEuUzIH9Gx3N40wxRF980QcTmXbzCpKrKQZ0qTt81NUcpnd77NfXJcYSs5pnTajJGETKsNJhUpRIopeWjISAVMWSV87jLZK6tdkmCKxsajuTITa3PPN5icFqeQSqY0edP4ODLhXhjf5j45KdqyqGBKp9aiuSpT1mCSW0yRrcqZxg8/micq2bPk29zFtUtlTJYTRbFK9mG5NvferuACLGZKp+dQpwGV7S3zR3QIapcKmZqK5iKV75fzM+xWapcKmMa/bO5xValyJgbX5n6Qf1wSMkVTICMtVPleg59hl29MEjClyRXwsVoS72r4NvfXtUurTPajeaWk3j/x0yNugmW455nG6W8ACE6S79RibobdxqLfL88E9omUl/R7wuF7Ltxnn1avmdIptJEWUpiJwR0UmDUmvWJywEgLqbzP5WfY7QXDZ6Zx6ICRFlJ7R83PsJs/Lr6YNrHHJSvF9+58uJ9xfzoh9ZkYbh/RwaRRH2F0hp0NadV8mJthZ0V6dSyGZthZkm5tjqtHdDDVmYlRb4adPdWpoaozw86matWF0RQCvX6RDM3EcEqG6veckmfyTFDyTJ4JSp7JM0HJM3kmKHkmzwQlz+SZoOSZPBOUPJNngpJn8kxQ8kyeCUqeyTNBacPMTAyn1Nuo7NtCx1RreoSzTNpHdDjNJJ7iiZ1Jtc0dBVM2PULjAnSbSf2IDgxMCm3uiJik29wxMcm2ueNiUjiiAxHTS4NJm5jI5Fh2hBgeJrkjOrAxsQYTmWSFi4mQucR9HRuTzMk36JgkZtghZGLDcUuHsqBkKp0egZaJzEpshZWp7OQbvEzFJ99gZio6+QY1U8HJN8iZhCffoGcSHGvbAqaVPbM2MPETV9vBlN8zawsTe2kVt46JjJa2ahHT81CWVjEt9sxaxpTtmbWOiYwuH6u/CZ2+VH+Ll5eXlxH9DyvrxXjEj3C+AAAAAElFTkSuQmCC;" vertex="1" parent="1">
          <mxGeometry x="920" y="1217.5" width="44.14" height="50" as="geometry" />
        </mxCell>
        <mxCell id="Htbz3_5xFDLYGNEnt884-90" value="" style="shape=flexArrow;endArrow=classic;html=1;rounded=0;fontSize=15;fontColor=#DBD4EE;endWidth=30.58823529411765;endSize=8.647058823529411;" edge="1" parent="1">
          <mxGeometry width="50" height="50" relative="1" as="geometry">
            <mxPoint x="730" y="1202.1599999999999" as="sourcePoint" />
            <mxPoint x="830" y="1202.1599999999999" as="targetPoint" />
            <Array as="points">
              <mxPoint x="786.5" y="1201.9099999999999" />
            </Array>
          </mxGeometry>
        </mxCell>
        <mxCell id="Htbz3_5xFDLYGNEnt884-91" value="" style="shape=image;verticalLabelPosition=bottom;labelBackgroundColor=default;verticalAlign=top;aspect=fixed;imageAspect=0;image=https://cdn.icon-icons.com/icons2/2699/PNG/512/jenkins_logo_icon_170552.png;" vertex="1" parent="1">
          <mxGeometry x="1116.75" y="1159.25" width="86.5" height="86.5" as="geometry" />
        </mxCell>
        <mxCell id="Htbz3_5xFDLYGNEnt884-92" value="" style="shape=flexArrow;endArrow=classic;html=1;rounded=0;fontSize=15;fontColor=#DBD4EE;endWidth=30.58823529411765;endSize=8.647058823529411;" edge="1" parent="1">
          <mxGeometry width="50" height="50" relative="1" as="geometry">
            <mxPoint x="995" y="1200.4099999999999" as="sourcePoint" />
            <mxPoint x="1095" y="1200.4099999999999" as="targetPoint" />
            <Array as="points">
              <mxPoint x="1051.5" y="1200.1599999999999" />
            </Array>
          </mxGeometry>
        </mxCell>
        <mxCell id="Htbz3_5xFDLYGNEnt884-93" value="" style="shape=flexArrow;endArrow=classic;html=1;rounded=0;fontSize=15;fontColor=#DBD4EE;endWidth=30.58823529411765;endSize=8.647058823529411;" edge="1" parent="1">
          <mxGeometry width="50" height="50" relative="1" as="geometry">
            <mxPoint x="1162" y="1136" as="sourcePoint" />
            <mxPoint x="1162" y="1064" as="targetPoint" />
            <Array as="points" />
          </mxGeometry>
        </mxCell>
        <mxCell id="Htbz3_5xFDLYGNEnt884-94" value="" style="shape=image;verticalLabelPosition=bottom;labelBackgroundColor=default;verticalAlign=top;aspect=fixed;imageAspect=0;image=https://github.githubassets.com/images/modules/logos_page/GitHub-Mark.png;" vertex="1" parent="1">
          <mxGeometry x="81.75" y="700.5" width="66.5" height="66.5" as="geometry" />
        </mxCell>
        <mxCell id="Htbz3_5xFDLYGNEnt884-95" value="demo-wordpress-app" style="text;html=1;resizable=0;autosize=1;align=center;verticalAlign=middle;points=[];fillColor=none;strokeColor=none;rounded=0;fontSize=15;" vertex="1" parent="1">
          <mxGeometry x="35" y="680.5" width="160" height="20" as="geometry" />
        </mxCell>
        <mxCell id="Htbz3_5xFDLYGNEnt884-96" value="" style="shape=flexArrow;endArrow=classic;html=1;rounded=0;fontSize=15;fontColor=#DBD4EE;endWidth=30.58823529411765;endSize=8.647058823529411;" edge="1" parent="1">
          <mxGeometry width="50" height="50" relative="1" as="geometry">
            <mxPoint x="200" y="733.4099999999999" as="sourcePoint" />
            <mxPoint x="300" y="733.4099999999999" as="targetPoint" />
            <Array as="points">
              <mxPoint x="256.5" y="733.1599999999999" />
            </Array>
          </mxGeometry>
        </mxCell>
        <mxCell id="Htbz3_5xFDLYGNEnt884-97" value="" style="shape=image;verticalLabelPosition=bottom;labelBackgroundColor=default;verticalAlign=top;aspect=fixed;imageAspect=0;image=https://cdn-icons-png.flaticon.com/512/174/174881.png;" vertex="1" parent="1">
          <mxGeometry x="326.5" y="662.25" width="56.5" height="56.5" as="geometry" />
        </mxCell>
        <mxCell id="Htbz3_5xFDLYGNEnt884-98" value="" style="outlineConnect=0;dashed=0;verticalLabelPosition=bottom;verticalAlign=top;align=center;html=1;shape=mxgraph.aws3.rds;fillColor=#2E73B8;gradientColor=none;shadow=0;labelBackgroundColor=none;sketch=0;fontSize=15;fontColor=#DBD4EE;strokeColor=#000000;" vertex="1" parent="1">
          <mxGeometry x="326.5" y="727" width="50" height="57" as="geometry" />
        </mxCell>
        <mxCell id="Htbz3_5xFDLYGNEnt884-99" value="" style="shape=image;verticalLabelPosition=bottom;labelBackgroundColor=default;verticalAlign=top;aspect=fixed;imageAspect=0;image=https://upload.wikimedia.org/wikipedia/commons/4/4f/PhpMyAdmin_logo.svg;" vertex="1" parent="1">
          <mxGeometry x="390" y="727.5" width="94.14" height="52.5" as="geometry" />
        </mxCell>
        <mxCell id="Htbz3_5xFDLYGNEnt884-100" value="" style="shape=image;verticalLabelPosition=bottom;labelBackgroundColor=default;verticalAlign=top;aspect=fixed;imageAspect=0;image=data:image/png,iVBORw0KGgoAAAANSUhEUgAAAPYAAADNCAMAAAC8cX2UAAAA51BMVEW6FBqTFhv///92GBu2AACQFhuLAAC4AAC7EhiUFhu5FBqOAAC2FBp6FxuzFBquFBqmFRqeFRqiFRq5CxOaFRqrFBqQAAy4AAmPAAaXFRry4uO8HSJxGBv89va4AAa2IyicIyjUgILz3N2rJSqRCxLnu7zqw8TjsbL57O3uz9DCPEDalJa2cHK0IyjXiozfqKnGTlHKX2HQdHbNaGrHlJWkJyupUlXYtbbAMTXeoaLER0r03+DIVlnPb3LXiYvBhoi6eXqvY2XBh4ifODvOo6SGFhqaKi6bAACsW13gxMWjQ0bCX2HMnp8FHaVRAAASFUlEQVR4nOWdC3faOhLHwTXYQC6QOMQByjOEZxMS0jSQZ5vkdpvefv/Ps5JtwBhZmhk/7p6zc3Z79t4tsn6MJf2l+dtktP/LyKR+xdZ4cj5azS57z7PVfDRstFLvgZY29vj8+aqp67rBwvnD0PX29GneT7UXWqrY49mSAVtmZjdMyzZ0+2mYXke0FLGHjww5ExamrZuzcVp9SQt7PGvqdiizR27oN5NUeqOlgz25MSSJ9oWtL1fpzHCJY7dW6kRvwzKMpzRSnjD25Ek2osNSPk885Ulit+ZTRKJ9KdeNXj/BfmlJYvcXwBEtCDa93Y8S65mWHPZoqreDKzQ25ZcPCXUuIeyHnqHvJdrEfgss5dOkUp4A9vmVbuwjmsvm/lehTrn1nEjK48ZuXJpiOuteO78XfR/KlF+dx9xHLW5srkDDwHSmPRvPgrt/i8jUuTDl7dh1a4zYCgWqu0kbiVPO9yPGdLESfmks5dfxblViw1Yq0HbP+5v9wIRntdn2c7qYT5hIuQ9rwtY7qxhTHg92a95RbzWa278+WjrLm+kQd1xi/u+XkkaYbo1vqxIHdh+mQHV/tpiYYZvvZc9/wjBuKr46lvKYdGtk7NYIqkCNUeCD/V2EcUb93bGUL/pRu6xFxu73bPBq3F5Im4JQszDbTLdGTnkkbNxCbEmv1bDAYoZvVRpR+h0Fu3EpW4P3usrWp45kKn5AbVv4ViWSiKFiy4TJHnKbLVC9c9n600dv1izdnNFTTsLmwgTYTZMtUR05Mo8lXq9HEjEE7OE1MNFceWUWSmS3UdKJhK03aboViz2GHo2ZhtFZjBC34eSRAk48b8VhT56gJybmcobuzeSadAZFOW9FYLfmS0S3TNsuLu+ve7P5ef8BeiP2b/Q2ARwvYsDY/QX6DNS0LFvnZS4W9vK6d7k6V3au8YTfk2ccEbPEnMTAsLkCpaTB/xXYbf4NBO7G8bjVCv6rnkG51R0RAz6JgWBjFKgijNlOyyNe/bSay/urx5vF82w+Hw0n/fHkhnY1xEmMGptyFBTeM9vfdE/nDZtsMFg2vxkMd0QYzWLIp5XHkEzEXEImEgU2ToECwphv2m5NRUdI4WGa1b+PDlTgLOWPahEjxQYoUDZmbWMdtq38iqzOuvGJhRrCZvHwr89/ZXOHZeWtBxAx4djK4qzFb0nr/mbR426M+Wp1ubie8sMDW9Yx70hNW6HuIvOg8Onzp09/FbLZXL2WUadccRIThs2kg2y9svjx1/P5ZF8mNIarJ0uCbk2dv3ajI5jNSu4zg3axGXihWgSkvCMRMULs8aooSzQbPh25BhuPro2wFnT2yUYHPqz5kHaYN9gMPKce5Dw1T3049kSuGEzdfA5rzRet80dDyGZdaUO48HGG9KdPAWxOflxRry+2PhWfxASxlQrUKM5F7Yhi3BM2ZSx06ILoDWkRNmyQ89qCqGi8i60sztr6CgrtgF+LCIEz+HZIi7EZeBYwyIVFYx92S12cNe6xu1vE/Rzobebor13mfWxnkKsXNKdovLsF3mA/9NrKJUWXn30KY9yhcJsHx/vQAmx3kAPaYyLGr1s97KGwOBsI4wZPzbj3DHjqTpaznwTQYmzgIGfjMzPbTG8OduMKoh22AgsXE8QSzZnN2t9C5lBs4CDnImY9HXPsEez0QKee190gVKhwSCux+SAHqFa2+F5tsEewbJgWkVobgtPNhrT47lZiQwe5ce9hN4CrqPVIxR5DsSs5KbQCm6vWWsiWdRv6pYvdA+pE+5qK3QJil//+LKdWYbNbvaq8iu5iX0PVQ1OFFxZ9aLbNckGebjk2n9HVoT+42YYekul9IvYzYt9RFK7XEGyQSGdhNBzsGRTbuqJRg4e2C+7bcMGxQVsyt33bxX6tQeWEPlMiimKKPWc2K2GDPAQbtAH3Gm+WXOyXkzNoh3D7EC+ucCdmbudCBrkQGybSvIY73byHXcrdNoEf03tKykCMkeeEm/7t7LMl2CCZsm40c5HLrrFP2WfPgODGElfZWpFNxsJBHsSGD2kXupvL+rFZA7cd0J1i6Y99MPSoCT5QEIOXAxvuXWw2pMF3NxvUZ13nUx7291OvkS4s5TbbwkEKjONVJ/oRu3lQ9w9yP3auDtCi62aKnduc97kANm/prAOxP1u69TSUk49HV3QT/W6P/XuTLTZqSLNE5zaQ+9g85ReQlJu2blzNhuJKW/+8t0RXR2UX2+5EPexcFj6kTXOb6FBs514HjXKTH5Xr00Vvxct1D43+ZDgczXo3Tf4oY6z1I36xsrtJcbDZhgO+YDUvujvQYdjO9AZKOQ/L9sp1TrD/Ka2IRAh3kDNs0PbS+0ym401jIGz49BZXcCc5//Zk1+SD/FMWPqRZom9z+2gb7BPB/+ekHL46EIPbHTiuYSyvn1fDybgjvSIb5NAhzUb0WfDu3sX+IsZmkVjK19YGu3P/NJsPN9aWGU3R7bdfFCcahu2IGKjGB3XHu5et6fViNZqMA4tgA3fWGHqVpmBEo7DjGeUmt8tz3Pb06Xk+7Ict+Vckz0rgWhlJouHYWbhu3e/CeuQ2r3qz0UTlpzmPnuxdYRING59yD7c5ZRPVeR9YP2qhn48LMmc6ikQjsbOIPRqnflzM8O+aQBw9iaHVicZjsziuAPNhUZ5RfIh0i5sHR0AKNDYvucDWTcswnrGl0Xv6fGZmKsegRPuxf4CxnZILTBqijb/A0ozoUgfVAhyaYbsHxiJxKiOHHtfZqOcaqI4/s3KYw0Az7JaDPcmjPgWtsmX4vrwJdTxDSzMB5iIu0TxOf2gOtvaC5XaLTRBydq+DnuEB1012Gi9jE81icNLysLXXfB0PnoW4J1gY+rV6kIc+2hnOXKzV0czZbOmnO9U6Zf2PbklRUxOSH8O2+7byoXv0fGaWj7IE6JP8d2/QeSaOP6X8gAAOPNyxdGsmGeQt3HxmZkiJrpfyvzYDbmPZufudp6W8AjqCMvRFqCZfYOYzLkwI0IN84atPSvgMWo0XQnPOigZKeVt/FA9yxHyGEyZ+6l8fO9fcseONiI0Ca6y2+HkOcGkQK0w23cvW/gmIxi32+LJtmKRFIQtOueg1C3NgsvHCxOsan3mD2mmNvXHME1cGqG7dG+Rj0HxGESZOrzbrLJ9WxwHs4Y6/NkLKISKmvfNUwxNgPiN3qO5XVaZh9Fp+7OtgsYr+5YJ0K3/ZgHd9tVePuF6J7KimYQ032C2hp508lEBFdrY1dZ/gUTlSmTAhdkN455n6fI09Ddnp0idOiG41HW//SppseqLDbzp94mJLlCF5mYSaXx9l5zVEBapYVayli/2P9FiDKIqAujXcfExNdFa5oDjvQckojbCsA2QRQy0nsS87Mfmge7409QqSzO0WejXy0AJ9zx72K2StpYoY9T23d6WDaoKjisV/POwB7AScvJTAvXJ82UxyDuVxtvWlyeur2z4Vq+T1BNR+oiumc4Xmrc+gBffj0WWiKuVsRMehQKWXKPJSqN+XBi/v0VNyWAntHtv50W8ksNv0rJsrBOx4qPIeywuhi6yPx1WGviNR+D+Va0ekbxIxbfjqv3veFaBHKUNPOUfPHh9Wa7VK+aBcrtRqR8f1HOnedna6iERvPreHXYDa0jIRFle3x5sgNwGWBMH6r9CpxG1pwMImVbfGEFwNQOfuoDFNbNByUg4eMUQREynAhVfXrxT8uMSXxqc3YMtE3UoOuNIXOBB5SLAxtjSybiUEQpiIEu2E3I6HWdGouhUZcAXqrlfiaofazYAQMUTdCg9MoqV+JZCJA5FyorgEBUaBKoxpQO8KSrcmknLgeazTBbUxDWzZSUnEhF0drkBNlQORB8apxHUr8PuOVcRQFagkMNhMxBTA6yX18G0vEIdSbDEBQeN9abhORE85Qphg1CLel4a55SLqVsRTMMhhRbDjpZVyjDDBTqJ595z8DunPAjsRqboVLkwo+/5B16uB/Ual2+mY8mRsG9jDN7gwIQmkQv5jXfHs4uyXTudAL/VxO4coGmOOxki16Hr+fVPfbv0iubNiTwvmRJ10glsoDT78boaPn0RbWnyDEDVlkERwoVR62XEzcPBvNFtaHb62Vo6yYRniZ6oJLxCD/OnXoHeFR+O1VMK3hlpgM+XqYWHn4ND5h+Oj8BP0vSZocmCQ/33nNwrt+NLejwkt4iq6plksV6rVo8PjQ/afo2qtcqB+aevmw9TK6+BHwOfsw354bqZV0TXXgfkMuc7OtI8VeG/9Btv7OasotrQkHwkl13+9JTHwylcPe+V7OXPCtjQKM7nQ77P7858q6O9gD81dK2CUim784FGKjbu9sfWez0/+LHpuOvGyKzSoHRFON+vfNmHYM7FDK4KbIraUU92Q4dUiu+k9KyKxcydvqZBDJ2F3Np5c7IXMCJi8ryL0ymSTkEJFeK+Jk9vxkrZLhV2VKiDUmtEzaKmfPCN7lMClycD1oggT5QW918S9Ap4ppVsh8SmPYPeEjCtz7Us7gvUmFd0axdwLew7xYuNLA9qzIogYoG4lT6Dgsx7zIrd1KnUvwEX8BHUr2bgPrxY1b3MF/2viEEV8akLkdhN6orHVot3XxIEruibZllY4qh0Ibiu+Ba8eJ/kcltPrzpl7haCJI3cL9yjRdCvLTeGwWisfrDfcGX7mcFQnVhFofiXBa+IwKSeX95yDpEKdRSGCNQ3lV7r1lQWFlh2EEzFtj5I/EGXBYqDQL8RGORFT9Cj5I5pfKfw1cQgnYjoepZ3ewcuCRZFfKdyXVvgftaXF4ldS+NIQTsTKYTqjPBa/ktLNgEg52WgND6xjPqwdyGviUlnRIIHxK8lfpAXzriT/OIU6YvUrgV8Th9OtsZPjHPNKvxLCqQR8y28mgZRHNlIHA/eauH/FiUhWoJLA+tJSf5wCUTwv8kTD6vNY7ALiLb/RH6eIwzEvDIovLYd6nCLCgz9IYYIwYnjYr0gPA0s5FJxcNI7JMS+KQt4tDzTyaM8K5nEKtG7FPMoHesPnbpRevdLfO547MRETlwINjdO3TaH3neTOSkC3IoQJyDG/F4X8t9a2rN94o4DjRIz6XscIE0qis4WS50HcmDjufudPKbY0hIipSQ9HY1agghiU6q+7v/Xn+JReSiVKyjEipua40vaIc9njahmlQNEZKpzm3/zGNP/veN695U/wDfIVDe6mO6hUD70TU+fUtH54VCuDPw5WoLtRL+W/9DVNjM2i/4WUcoSIcTpvZooHTmQw3jRXgaKjcJL/+R58E+Peb/S+U1KexaScFEgFuol6qfRD8C5C0S8yf8mX8C8+RaYcCY1VoF4M8t0/wndIC39/u/Wnnh+QUk58b72cmb5eBV78qMBm8fGrREl5/L9OQVKgWZ7o+tfwl4WHYWva+GuOJmLiTDk90d/CEq3A1uje+phSTk50qfSqeGG0FNv11hNTHvkXFGBHY8EIChMStpaCbg1JNGm9Yon+rvohDxg2063fTxPWrcJE4wXjSf5tT5jQsVPRrVvm8F85ksa+Ao2MrZF1K6KC6EIrf/xGGCzRXWCicdhct/4k6lbwSQz00fNAcAUqXa+iYLOY/CCJGNiKRkw0V6ASYRIHNhMxf7LUlEvv9SQUaIzYGtet1K0Ku9lF6OxfhvxAnSoG+RN0oqnYXLdmSbo12729uDho8j22a0tj/202Oxe3lDw7ClQtTGLE1si6NcuzXr89q57xqJ7d3mZJyFyYnKoUaALYdN3qsm//pHx5MAWaCLZG1q1RgyvQfpR+R8RmIoaoW+mBUKDJYdMP32jBhMkX3C+AJ4Stcd1KWtHQwRJdj55oJ+LAputWTOAVqCTiwWbxQdOt0KAoUEnEhs1FTJcmYpRBVKCSiBFbiyJiJMGPxmJMtBPxYvPfWxrEuqKxRP+OJEzEETe2FquIGZROXiBHY+hIAJunPIJu3QRL9NtdPOvVXiSCzeLuLWLK2Yh+oW81VJEUNtet9JSzrUYSI3obyWF7upWW6KhbDVUkia3xwzesbo1nq6GKhLF50biL0K1xbTVUkTi2Btet3G7xJ/FEO5EGNuzwja1X8W01VJEOtubq1nCHRP2UegZKi9SwWcrfv5UYej3AXhiclvLZlzRG9DZSxGbR+vjz662Uz5dYnJ7yP/Ol3O+Xu+R0SUiki+1Eq/Fxd/f15fvL6/vdRz+dKSwY/wL2/0L8F364PjWG8RlBAAAAAElFTkSuQmCC;" vertex="1" parent="1">
          <mxGeometry x="410" y="666.63" width="57.3" height="47.75" as="geometry" />
        </mxCell>
      </root>
    </mxGraphModel>
  </diagram>
</mxfile>
